<?xml version="1.0" encoding="UTF-8"?>
<svg version="1.1" xmlns="http://www.w3.org/2000/svg" width="48" height="48">
<path d="M0 0 C0.85368164 0.37088745 0.85368164 0.37088745 1.72460938 0.74926758 C1.72460938 4.74926758 1.72460938 4.74926758 -0.5703125 7.49829102 C-1.61804538 8.54539146 -2.67676937 9.58156803 -3.74414062 10.60864258 C-4.29904175 11.15788391 -4.85394287 11.70712524 -5.42565918 12.27301025 C-7.19973791 14.02470255 -8.98721627 15.76197818 -10.77539062 17.49926758 C-11.98072677 18.68454175 -13.18516554 19.87072923 -14.38867188 21.05786133 C-17.34060395 23.96569599 -20.30462986 26.86067679 -23.27539062 29.74926758 C-27.12567054 27.9672607 -29.55530483 25.67251353 -32.52539062 22.62426758 C-33.41742188 21.71418945 -34.30945312 20.80411133 -35.22851562 19.86645508 C-35.90398438 19.1677832 -36.57945313 18.46911133 -37.27539062 17.74926758 C-36.61539063 16.42926758 -35.95539062 15.10926758 -35.27539062 13.74926758 C-31.92288361 14.32502422 -30.33720434 15.34233021 -28.02539062 17.81176758 C-27.50460938 18.35961914 -26.98382813 18.9074707 -26.44726562 19.47192383 C-26.06054688 19.89344727 -25.67382812 20.3149707 -25.27539062 20.74926758 C-21.69713275 19.2432992 -19.52446374 17.16770477 -16.86914062 14.36254883 C-16.04285156 13.50725586 -15.2165625 12.65196289 -14.36523438 11.77075195 C-12.63280938 9.95863019 -10.90626865 8.14086534 -9.18554688 6.31762695 C-8.35925781 5.46620117 -7.53296875 4.61477539 -6.68164062 3.73754883 C-5.55725586 2.5547937 -5.55725586 2.5547937 -4.41015625 1.34814453 C-2.27539062 -0.25073242 -2.27539062 -0.25073242 0 0 Z " fill="#429F47" transform="translate(41.275390625,12.250732421875)"/>
</svg>
