<?xml version="1.0" encoding="UTF-8"?>
<svg version="1.1" xmlns="http://www.w3.org/2000/svg" width="48" height="48">
<path d="M0 0 C3.45201639 1.47721422 5.64961936 3.43794001 8.25 6.125 C8.95640625 6.84945313 9.6628125 7.57390625 10.390625 8.3203125 C11.18726563 9.15175781 11.18726563 9.15175781 12 10 C15.45201639 8.52278578 17.64961936 6.56205999 20.25 3.875 C21.30960938 2.78832031 21.30960938 2.78832031 22.390625 1.6796875 C22.92171875 1.12539062 23.4528125 0.57109375 24 0 C26.8605891 1.35937085 28.85927699 2.64520469 31 5 C29.52278578 8.45201639 27.56205999 10.64961936 24.875 13.25 C24.15054688 13.95640625 23.42609375 14.6628125 22.6796875 15.390625 C22.12539063 15.92171875 21.57109375 16.4528125 21 17 C22.47721422 20.45201639 24.43794001 22.64961936 27.125 25.25 C27.84945312 25.95640625 28.57390625 26.6628125 29.3203125 27.390625 C30.15175781 28.18726563 30.15175781 28.18726563 31 29 C29.64062915 31.8605891 28.35479531 33.85927699 26 36 C22.54798361 34.52278578 20.35038064 32.56205999 17.75 29.875 C17.04359375 29.15054688 16.3371875 28.42609375 15.609375 27.6796875 C15.07828125 27.12539063 14.5471875 26.57109375 14 26 C10.54798361 27.47721422 8.35038064 29.43794001 5.75 32.125 C5.04359375 32.84945312 4.3371875 33.57390625 3.609375 34.3203125 C2.81273437 35.15175781 2.81273437 35.15175781 2 36 C-0.8605891 34.64062915 -2.85927699 33.35479531 -5 31 C-3.52278578 27.54798361 -1.56205999 25.35038064 1.125 22.75 C1.84945313 22.04359375 2.57390625 21.3371875 3.3203125 20.609375 C3.87460938 20.07828125 4.42890625 19.5471875 5 19 C3.52278578 15.54798361 1.56205999 13.35038064 -1.125 10.75 C-1.84945313 10.04359375 -2.57390625 9.3371875 -3.3203125 8.609375 C-3.87460938 8.07828125 -4.42890625 7.5471875 -5 7 C-3.64062915 4.1394109 -2.35479531 2.14072301 0 0 Z " fill="#E53834" transform="translate(11,6)"/>
</svg>
