<svg xmlns="http://www.w3.org/2000/svg" width="48" height="48"><path fill="#E53834" d="M11 6c3.452 1.477 5.65 3.438 8.25 6.125l2.14 2.195L23 16c3.452-1.477 5.65-3.438 8.25-6.125l2.14-2.195L35 6c2.86 1.36 4.86 2.645 7 5-1.477 3.452-3.438 5.65-6.125 8.25l-2.195 2.14L32 23c1.477 3.452 3.438 5.65 6.125 8.25l2.195 2.14L42 35c-1.36 2.86-2.645 4.86-5 7-3.452-1.477-5.65-3.438-8.25-6.125l-2.14-2.195L25 32c-3.452 1.477-5.65 3.438-8.25 6.125l-2.14 2.195L13 42c-2.86-1.36-4.86-2.645-7-5 1.477-3.452 3.438-5.65 6.125-8.25l2.195-2.14L16 25c-1.477-3.452-3.438-5.65-6.125-8.25L7.68 14.61 6 13c1.36-2.86 2.645-4.86 5-7"/></svg>